HIERARCHY
ROOT Hips
{
	OFFSET 0.00000 0.00000 0.00000
	CHANNELS 6 Xposition Yposition Zposition Zrotation Yrotation Xrotation 
	JOINT LHipJoint
	{
		OFFSET 0 0 0
		CHANNELS 3 Zrotation Yrotation Xrotation
		JOINT LeftHip
		{
			OFFSET 1.57358 -1.76629 0.73362
			CHANNELS 3 Zrotation Yrotation Xrotation
			JOINT LeftKnee
			{
				OFFSET 2.40600 -6.61045 0.00000
				CHANNELS 3 Zrotation Yrotation Xrotation
				JOINT LeftAnkle
				{
					OFFSET 2.66168 -7.31291 0.00000
					CHANNELS 3 Zrotation Yrotation Xrotation
					JOINT LeftToe
					{
						OFFSET 0.20870 -0.57341 2.12506
						CHANNELS 3 Zrotation Yrotation Xrotation
						End Site
						{
							OFFSET 0.00000 -0.00000 1.10557
						}
					}
				}
			}
		}
	}
	JOINT RHipJoint
	{
		OFFSET 0 0 0
		CHANNELS 3 Zrotation Yrotation Xrotation
		JOINT RightHip
		{
			OFFSET -1.49299 -1.76629 0.73362
			CHANNELS 3 Zrotation Yrotation Xrotation
			JOINT RightKnee
			{
				OFFSET -2.43663 -6.69460 0.00000
				CHANNELS 3 Zrotation Yrotation Xrotation
				JOINT RightAnkle
				{
					OFFSET -2.62959 -7.22474 0.00000
					CHANNELS 3 Zrotation Yrotation Xrotation
					JOINT RightToe
					{
						OFFSET -0.25784 -0.70841 2.21862
						CHANNELS 3 Zrotation Yrotation Xrotation
						End Site
						{
							OFFSET -0.00000 -0.00000 1.16452
						}
					}
				}
			}
		}
	}
	JOINT lowerback
	{
		OFFSET 0 0 0
		CHANNELS 3 Zrotation Yrotation Xrotation
		JOINT Chest
		{
			OFFSET -0.00034 2.12399 -0.25450
			CHANNELS 3 Zrotation Yrotation Xrotation
			JOINT Chest2
			{
				OFFSET 0.05594 2.14379 -0.03318
				CHANNELS 3 Zrotation Yrotation Xrotation
				JOINT lowerneck
				{
					OFFSET 0 0 0
					CHANNELS 3 Zrotation Yrotation Xrotation
					JOINT Neck
					{
						OFFSET -0.09835 1.62725 0.24211
						CHANNELS 3 Zrotation Yrotation Xrotation
						JOINT Head
						{
							OFFSET 0.10849 1.66041 -0.22648
							CHANNELS 3 Zrotation Yrotation Xrotation
							End Site
							{
								OFFSET 0.04385 1.68267 -0.10541
							}
						}
					}
				}
				JOINT LeftCollar
				{
					OFFSET 0 0 0
					CHANNELS 3 Zrotation Yrotation Xrotation
					JOINT LeftShoulder
					{
						OFFSET 3.29108 0.79398 -0.68179
CHANNELS 3 Zrotation Xrotation Yrotation
						JOINT LeftElbow
						{
OFFSET 0 -5.153100 -0.000000
CHANNELS 3 Zrotation Xrotation Yrotation
							JOINT LeftWrist
							{
OFFSET 0 -3.751380 -0.000000
CHANNELS 3 Zrotation Xrotation Yrotation
								JOINT lhand
								{
									OFFSET 0 0 0
CHANNELS 3 Zrotation Xrotation Yrotation
									JOINT LFingers
									{
OFFSET 0 -0.529170 0.000000
CHANNELS 3 Zrotation Xrotation Yrotation
										End Site
										{
OFFSET 0 -0.426630 0.000000
										}
									}
								}
								JOINT LThumb
								{
OFFSET 0 0.000000 0.000000
CHANNELS 3 Zrotation Xrotation Yrotation
									End Site
									{
OFFSET 0 -0.433150 0.433150
									}
								}
							}
						}
					}
				}
				JOINT RightCollar
				{
					OFFSET 0 0 0
					CHANNELS 3 Zrotation Yrotation Xrotation
					JOINT RightShoulder
					{
						OFFSET -3.07414 1.06285 -0.44338
CHANNELS 3 Zrotation Xrotation Yrotation
						JOINT RightElbow
						{
OFFSET 0 -5.296130 0.000000
CHANNELS 3 Zrotation Xrotation Yrotation
							JOINT RightWrist
							{
OFFSET 0 -3.761440 -0.000000
CHANNELS 3 Zrotation Xrotation Yrotation
								JOINT rhand
								{
									OFFSET 0 0 0
CHANNELS 3 Zrotation Xrotation Yrotation
									JOINT RFingers
									{
OFFSET 0 -0.747320 0.000000
CHANNELS 3 Zrotation Xrotation Yrotation
										End Site
										{
OFFSET 0 -0.602510 0.000000
										}
									}
								}
								JOINT RThumb
								{
OFFSET 0 0.000000 0.000000
CHANNELS 3 Zrotation Xrotation Yrotation
									End Site
									{
OFFSET 0 -0.611710 0.611710
									}
								}
							}
						}
					}
				}
			}
		}
	}
}
MOTION
Frames: 10
Frame Time: 0.008333333333333333
1.593800 17.814400 -15.965500 0.867700 -5.269700 4.899900 0.000000 0.000000 0.000000 -24.290600 -2.989000 -11.805600 1.229300 7.031600 19.809000 0.407200 -1.036300 -11.737100 0.003200 0.365300 1.003600 0.000000 0.000000 0.000000 18.202400 9.199100 -10.849200 -1.623100 -8.032400 22.812500 -0.310200 -3.651300 -12.511300 -0.042500 -1.331200 3.660500 -3.007800 -0.852800 6.047700 1.932500 -1.282400 -0.013100 3.804600 -0.574700 -3.296300 -9.109900 -2.453500 -15.789600 2.836000 -1.756900 27.406400 2.345600 -1.395100 11.705100 0.000000 -0.000000 0.000000 -1.206600 1.565800 -17.638800 16.067500 -25.612100 3.675100 17.194300 16.037600 -31.890100 0.000000 0.000000 0.000000 -7.125000 0.000000 0.000000 -17.761700 62.188700 7.551400 0.000000 -0.000000 0.000000 -2.782300 4.940500 17.623200 -17.969400 -28.118000 -4.534800 -12.755800 0.022900 -16.538700 0.000000 0.000000 0.000000 7.125000 0.000000 -0.000000 10.010300 13.232900 7.572000
1.584514 17.822059 -15.968008 0.878951 -5.201649 4.963477 0.000000 0.000000 0.000000 -24.249729 -3.083417 -11.874057 1.244212 7.072403 19.930190 0.415401 -1.109231 -11.838159 0.006589 0.514076 1.412650 0.000000 0.000000 0.000000 18.255065 9.302261 -10.630272 -1.574299 -7.916090 22.459707 -0.299423 -3.986674 -12.590670 -0.041144 -1.308765 3.598821 -3.045689 -0.821757 6.087080 1.964492 -1.243562 -0.024013 3.857265 -0.553553 -3.331681 -9.118034 -2.420424 -15.912146 2.802042 -1.682817 27.489023 2.346074 -1.368056 11.756951 0.000000 0.000000 0.000000 -1.197043 1.543297 -17.669436 16.141380 -25.711939 3.707092 16.839135 15.851138 -32.078256 0.000000 0.000000 0.000000 -7.125000 0.000000 0.000000 -18.310037 62.276407 7.831601 0.000000 0.000000 0.000000 -2.889460 5.002925 17.685964 -17.970417 -28.119288 -4.535274 -12.806431 -0.135230 -16.608445 0.000000 0.000000 0.000000 7.125000 0.000000 0.000000 9.976952 13.158546 7.561833
1.575940 17.826660 -15.972258 0.882024 -5.144231 5.037189 0.000000 0.000000 0.000000 -24.203026 -3.223706 -11.992867 1.263710 7.125475 20.087864 0.421469 -1.126014 -11.922150 0.008947 0.609940 1.676121 0.000000 0.000000 0.000000 18.304067 9.398772 -10.461944 -1.528093 -7.804545 22.122169 -0.285766 -4.250218 -12.573212 -0.036624 -1.231497 3.386085 -3.045920 -0.797221 6.129838 1.980731 -1.211339 -0.078450 3.873552 -0.534717 -3.414676 -9.129439 -2.363807 -15.910732 2.768049 -1.587754 27.571789 2.350532 -1.332727 11.782347 0.000000 0.000000 0.000000 -1.163092 1.603505 -17.696730 16.170419 -25.751186 3.719669 17.200524 15.629366 -31.538088 0.000000 0.000000 0.000000 -7.125000 0.000000 0.000000 -17.495815 61.849144 7.317835 0.000000 0.000000 0.000000 -2.952099 5.156951 17.762489 -17.994938 -28.150659 -4.546843 -12.913744 -0.256129 -16.596084 0.000000 0.000000 0.000000 7.125000 0.000000 0.000000 9.905663 13.161711 7.505581
1.568073 17.828784 -15.978057 0.872411 -5.096763 5.118588 0.000000 0.000000 0.000000 -24.145937 -3.404984 -12.148953 1.286741 7.187946 20.273497 0.425544 -1.090325 -11.990265 0.010557 0.662552 1.820592 0.000000 0.000000 0.000000 18.355119 9.491658 -10.338986 -1.484928 -7.698917 21.803318 -0.269479 -4.448486 -12.467657 -0.029557 -1.109959 3.051383 -3.004154 -0.777637 6.171417 1.982016 -1.183205 -0.167346 3.851353 -0.517411 -3.533575 -9.142188 -2.287687 -15.799108 2.736718 -1.477313 27.650750 2.358738 -1.290885 11.782882 0.000000 0.000000 0.000000 -1.104855 1.729295 -17.722271 16.156435 -25.732293 3.713615 18.209944 15.376784 -30.350422 0.000000 0.000000 0.000000 -7.125000 0.000000 0.000000 -15.463105 60.965330 6.100632 0.000000 0.000000 0.000000 -2.968652 5.383165 17.837818 -18.036086 -28.203308 -4.566261 -13.072507 -0.335978 -16.518168 0.000000 0.000000 0.000000 7.125000 0.000000 0.000000 9.799978 13.226208 7.409418
1.561430 17.836579 -15.983276 0.760981 -5.055418 5.171117 0.000000 0.000000 0.000000 -23.990383 -3.575179 -12.143937 1.297721 7.217294 20.360730 0.428458 -1.023833 -12.050453 0.015776 0.805702 2.214256 0.000000 0.000000 0.000000 18.509792 9.630877 -10.206748 -1.455037 -7.624156 21.578358 -0.252805 -4.643081 -12.355143 -0.028675 -1.092878 3.004344 -2.810372 -0.739816 6.131156 1.970154 -1.118340 -0.160161 3.722504 -0.489215 -3.512767 -9.123685 -2.246816 -15.728210 2.757391 -1.436984 27.653800 2.369650 -1.268246 11.766276 0.000000 0.000000 0.000000 -1.004473 1.674394 -17.772428 16.096247 -25.650958 3.687519 19.195392 15.147079 -29.402863 0.000000 0.000000 0.000000 -7.125000 0.000000 0.000000 -13.741774 60.275740 5.191843 0.000000 0.000000 0.000000 -2.874303 5.400720 17.649390 -17.987081 -28.140544 -4.543149 -13.233009 -0.274638 -16.610890 0.000000 0.000000 0.000000 7.125000 0.000000 0.000000 9.693971 13.118777 7.348891
1.555877 17.840289 -15.987406 0.672579 -5.034727 5.215711 0.000000 0.000000 0.000000 -23.864741 -3.786216 -12.132542 1.307729 7.244037 20.440338 0.427366 -0.866825 -12.078512 0.021423 0.940607 2.585437 0.000000 0.000000 0.000000 18.627862 9.745163 -10.091625 -1.428802 -7.558147 21.379926 -0.238426 -4.790571 -12.240918 -0.024760 -1.011110 2.779346 -2.630477 -0.699233 6.080937 1.950008 -1.051024 -0.121197 3.592176 -0.460785 -3.453216 -9.090750 -2.224499 -15.716399 2.774446 -1.419839 27.635340 2.372861 -1.254127 11.754727 0.000000 0.000000 0.000000 -0.911444 1.568808 -17.797573 16.078924 -25.627580 3.680018 19.808546 15.037569 -28.969576 0.000000 0.000000 0.000000 -7.125000 0.000000 0.000000 -12.777556 59.998548 4.722680 0.000000 0.000000 0.000000 -2.807494 5.279486 17.444587 -17.853318 -27.968515 -4.480437 -13.370055 -0.218704 -16.733642 0.000000 0.000000 0.000000 7.125000 0.000000 0.000000 9.603912 12.982990 7.306296
1.551279 17.840192 -15.990574 0.608828 -5.033533 5.250259 0.000000 0.000000 0.000000 -23.770839 -4.025890 -12.116858 1.316681 7.267936 20.511574 0.422985 -0.635612 -12.080978 0.026680 1.054283 2.898329 0.000000 0.000000 0.000000 18.708959 9.836128 -9.990759 -1.405610 -7.499378 21.203468 -0.226693 -4.889162 -12.129047 -0.019107 -0.891983 2.451584 -2.472044 -0.657468 6.037060 1.926353 -0.983992 -0.067691 3.470401 -0.432563 -3.381567 -9.048161 -2.213668 -15.733934 2.780021 -1.415326 27.599392 2.367902 -1.245551 11.743119 0.000000 0.000000 0.000000 -0.835645 1.443386 -17.786071 16.097209 -25.652332 3.687957 20.132000 15.028088 -28.930879 0.000000 0.000000 0.000000 -7.125000 0.000000 0.000000 -12.397911 60.037054 4.591109 0.000000 0.000000 0.000000 -2.772952 5.070489 17.229975 -17.657082 -27.715739 -4.388645 -13.451095 -0.132695 -16.831819 0.000000 0.000000 0.000000 7.125000 0.000000 0.000000 9.550983 12.876779 7.286391
1.548026 17.833008 -15.992336 0.614182 -5.070405 5.246803 0.000000 0.000000 0.000000 -23.764129 -4.250105 -12.105268 1.322578 7.283525 20.558003 0.415733 -0.340363 -12.067557 0.025460 1.029746 2.830617 0.000000 0.000000 0.000000 18.700418 9.883099 -9.904069 -1.385412 -7.447391 21.047846 -0.223575 -4.860356 -12.050355 -0.018158 -0.870497 2.392548 -2.415651 -0.623646 6.118870 1.926896 -0.936208 -0.097040 3.436918 -0.407823 -3.462428 -9.015288 -2.181879 -15.618573 2.705125 -1.368897 27.549574 2.340519 -1.229826 11.696622 0.000000 0.000000 0.000000 -0.867569 1.480801 -17.609166 16.150077 -25.723704 3.710867 20.333983 15.117286 -29.008826 0.000000 0.000000 0.000000 -7.125000 0.000000 0.000000 -12.223447 60.162446 4.561760 0.000000 0.000000 0.000000 -2.846561 5.001353 17.036871 -17.465062 -27.466446 -4.299786 -13.179028 0.265240 -16.501122 0.000000 0.000000 0.000000 7.125000 0.000000 0.000000 9.729446 13.233842 7.352273
1.544477 17.834608 -15.992747 0.621268 -5.095873 5.266196 0.000000 0.000000 0.000000 -23.764683 -4.414090 -12.042064 1.320196 7.277151 20.539049 0.412831 -0.128618 -12.094854 0.030744 1.125163 3.093241 0.000000 0.000000 0.000000 18.690146 9.889903 -9.890280 -1.374590 -7.419522 20.964407 -0.224258 -4.791635 -12.002158 -0.018560 -0.879464 2.417183 -2.356049 -0.594765 6.196879 1.925833 -0.894547 -0.163050 3.400858 -0.385153 -3.578810 -9.009278 -2.139827 -15.447755 2.661821 -1.315625 27.498277 2.330538 -1.210046 11.638341 0.000000 0.000000 0.000000 -0.894721 1.591285 -17.354587 16.274030 -25.890531 3.764989 19.785921 15.470381 -29.795595 0.000000 0.000000 0.000000 -7.125000 0.000000 0.000000 -13.362850 60.801103 5.224170 0.000000 0.000000 0.000000 -2.913665 5.095042 16.869278 -17.419140 -27.406923 -4.278464 -12.714022 0.770118 -16.007517 0.000000 0.000000 0.000000 7.125000 0.000000 0.000000 10.039225 13.768596 7.476526
1.540599 17.841452 -15.992690 0.627569 -5.110678 5.303655 0.000000 0.000000 0.000000 -23.766967 -4.534940 -11.956982 1.312157 7.255762 20.475387 0.411969 0.024787 -12.135594 0.039211 1.277966 3.513934 0.000000 0.000000 0.000000 18.680801 9.869441 -9.932818 -1.370370 -7.408631 20.931792 -0.227441 -4.697305 -11.974737 -0.020321 -0.918156 2.523560 -2.283927 -0.566980 6.257984 1.916758 -0.853325 -0.239893 3.349197 -0.362893 -3.697131 -9.015466 -2.096677 -15.267860 2.646088 -1.266440 27.447700 2.332362 -1.189928 11.579004 0.000000 0.000000 0.000000 -0.905313 1.730763 -17.070575 16.450527 -26.127556 3.842365 18.741161 15.965407 -31.085493 0.000000 0.000000 0.000000 -7.125000 0.000000 0.000000 -15.433835 61.802802 6.412115 0.000000 0.000000 0.000000 -2.962151 5.279194 16.736906 -17.477146 -27.482337 -4.305227 -12.197045 1.262802 -15.506857 0.000000 0.000000 0.000000 7.125000 0.000000 0.000000 10.385114 14.313596 7.623829
